# Blender v2.79 (sub 0) OBJ File: ''
# www.blender.org
o Cube
v 0.950000 1.450000 -0.200000
v 0.950000 1.500000 -0.150000
v 1.000000 1.450000 -0.150000
v 0.949999 1.450000 0.100670
v 1.000000 1.450000 0.050670
v 0.950000 1.500000 0.050670
v 0.950000 1.221194 -0.200000
v 1.000000 1.221194 -0.150000
v 1.000000 1.121194 -0.150000
v 0.950000 1.121194 -0.200000
v 0.949999 1.221194 0.100670
v 0.949999 1.121194 0.100670
v 1.000000 1.121194 0.050670
v 1.000000 1.221194 0.050670
v 0.615856 1.500000 -0.150000
v 0.715856 1.500000 -0.150000
v 0.715856 1.450000 -0.200000
v 0.615856 1.450000 -0.200000
v 0.615856 1.500000 0.050670
v 0.615855 1.450000 0.100670
v 0.715855 1.450000 0.100670
v 0.715856 1.500000 0.050670
v 0.615856 1.221194 -0.200000
v 0.715856 1.221194 -0.200000
v 0.715856 1.121194 -0.200000
v 0.615856 1.121194 -0.200000
v 0.665856 1.121194 0.050670
v 0.715856 1.121194 0.100670
v 0.715856 1.221194 0.100670
v 0.615856 1.221194 0.100670
v 0.615856 1.171194 0.050670
v 0.665856 1.121194 -0.163356
v 0.615856 1.171194 -0.163356
v -0.950000 1.450000 -0.200000
v -1.000000 1.450000 -0.150000
v -0.950000 1.500000 -0.150000
v -0.949999 1.450000 0.100670
v -0.950000 1.500000 0.050670
v -1.000000 1.450000 0.050670
v -0.050000 1.450000 0.100670
v 0.050000 1.450000 0.100670
v 0.050000 1.500000 0.050670
v -0.050000 1.500000 0.050670
v -0.050000 1.450000 -0.200000
v -0.050000 1.500000 -0.150000
v 0.050000 1.500000 -0.150000
v 0.050000 1.450000 -0.200000
v -0.950000 1.221194 -0.200000
v -0.950000 1.121194 -0.200000
v -1.000000 1.121194 -0.150000
v -1.000000 1.221194 -0.150000
v -0.949999 1.221194 0.100670
v -1.000000 1.221194 0.050670
v -1.000000 1.121194 0.050670
v -0.949999 1.121194 0.100670
v -0.050000 1.221194 0.100670
v -0.050000 1.171194 0.050670
v 0.050000 1.171194 0.050670
v 0.050000 1.221194 0.100670
v -0.050000 1.221194 -0.200000
v 0.050000 1.221194 -0.200000
v 0.050000 1.121194 -0.200000
v -0.050000 1.121194 -0.200000
v -0.615856 1.500000 -0.150000
v -0.615856 1.450000 -0.200000
v -0.715856 1.450000 -0.200000
v -0.715856 1.500000 -0.150000
v -0.615856 1.500000 0.050670
v -0.715856 1.500000 0.050670
v -0.715855 1.450000 0.100670
v -0.615855 1.450000 0.100670
v -0.615856 1.221194 -0.200000
v -0.615856 1.121194 -0.200000
v -0.715856 1.121194 -0.200000
v -0.715856 1.221194 -0.200000
v -0.665856 1.121194 0.050670
v -0.615856 1.171194 0.050670
v -0.615856 1.221194 0.100670
v -0.715856 1.221194 0.100670
v -0.715856 1.121194 0.100670
v 0.050000 1.171194 -0.163357
v -0.050000 1.171194 -0.163357
v -0.615856 1.171194 -0.163356
v -0.665856 1.121194 -0.163356
v 1.000000 -0.050000 -0.150000
v 0.950000 -0.050000 -0.200000
v 0.950000 0.050000 -0.200000
v 1.000000 0.050000 -0.150000
v 1.000000 -0.050000 0.050670
v 1.000000 0.050000 0.050670
v 0.950000 0.050000 0.100670
v 0.950000 -0.050000 0.100670
v 0.950000 -1.450000 -0.200000
v 1.000000 -1.450000 -0.150000
v 0.950000 -1.500000 -0.150000
v 0.949999 -1.450000 0.100670
v 0.950000 -1.500000 0.050670
v 1.000000 -1.450000 0.050670
v 0.950000 -1.221194 -0.200000
v 0.950000 -1.121194 -0.200000
v 1.000000 -1.121194 -0.150000
v 1.000000 -1.221194 -0.150000
v 0.949999 -1.221194 0.100670
v 1.000000 -1.221194 0.050670
v 1.000000 -1.121194 0.050670
v 0.949999 -1.121194 0.100670
v 0.615856 -0.050000 -0.200000
v 0.615856 0.050000 -0.200000
v 0.715856 0.050000 -0.200000
v 0.715856 -0.050000 -0.200000
v 0.715856 -0.050000 0.100670
v 0.715856 0.050000 0.100670
v 0.665856 0.050000 0.050670
v 0.665856 -0.050000 0.050670
v 0.615856 -1.500000 -0.150000
v 0.615856 -1.450000 -0.200000
v 0.715856 -1.450000 -0.200000
v 0.715856 -1.500000 -0.150000
v 0.615856 -1.500000 0.050670
v 0.715856 -1.500000 0.050670
v 0.715855 -1.450000 0.100670
v 0.615855 -1.450000 0.100670
v 0.615856 -1.221194 -0.200000
v 0.615856 -1.121194 -0.200000
v 0.715856 -1.121194 -0.200000
v 0.715856 -1.221194 -0.200000
v 0.665856 -1.121194 0.050670
v 0.615856 -1.171194 0.050670
v 0.615856 -1.221194 0.100670
v 0.715856 -1.221194 0.100670
v 0.715856 -1.121194 0.100670
v 0.665856 -0.050000 -0.163357
v 0.665856 0.050000 -0.163357
v 0.615856 -1.171194 -0.163356
v 0.665856 -1.121194 -0.163356
v -1.000000 -0.050000 -0.150000
v -1.000000 0.050000 -0.150000
v -0.950000 0.050000 -0.200000
v -0.950000 -0.050000 -0.200000
v -1.000000 -0.050000 0.050670
v -0.950000 -0.050000 0.100670
v -0.950000 0.050000 0.100670
v -1.000000 0.050000 0.050670
v 0.050000 -0.050000 -0.200000
v -0.050000 -0.050000 -0.200000
v -0.050000 0.050000 -0.200000
v 0.050000 0.050000 -0.200000
v -0.950000 -1.450000 -0.200000
v -0.950000 -1.500000 -0.150000
v -1.000000 -1.450000 -0.150000
v -0.949999 -1.450000 0.100670
v -1.000000 -1.450000 0.050670
v -0.950000 -1.500000 0.050670
v -0.050000 -1.450000 0.100670
v -0.050000 -1.500000 0.050670
v 0.050000 -1.500000 0.050670
v 0.050000 -1.450000 0.100670
v -0.050000 -1.450000 -0.200000
v 0.050000 -1.450000 -0.200000
v 0.050000 -1.500000 -0.150000
v -0.050000 -1.500000 -0.150000
v -0.950000 -1.221194 -0.200000
v -1.000000 -1.221194 -0.150000
v -1.000000 -1.121194 -0.150000
v -0.950000 -1.121194 -0.200000
v -0.949999 -1.221194 0.100670
v -0.949999 -1.121194 0.100670
v -1.000000 -1.121194 0.050670
v -1.000000 -1.221194 0.050670
v -0.050000 -1.221194 0.100670
v 0.050000 -1.221194 0.100670
v 0.050000 -1.171194 0.050670
v -0.050000 -1.171194 0.050670
v -0.050000 -1.221194 -0.200000
v -0.050000 -1.121194 -0.200000
v 0.050000 -1.121194 -0.200000
v 0.050000 -1.221194 -0.200000
v -0.615856 -0.050000 -0.200000
v -0.715856 -0.050000 -0.200000
v -0.715856 0.050000 -0.200000
v -0.615856 0.050000 -0.200000
v -0.715856 -0.050000 0.100670
v -0.665856 -0.050000 0.050670
v -0.665856 0.050000 0.050670
v -0.715856 0.050000 0.100670
v -0.615856 -1.500000 -0.150000
v -0.715856 -1.500000 -0.150000
v -0.715856 -1.450000 -0.200000
v -0.615856 -1.450000 -0.200000
v -0.615856 -1.500000 0.050670
v -0.615855 -1.450000 0.100670
v -0.715855 -1.450000 0.100670
v -0.715856 -1.500000 0.050670
v -0.615856 -1.221194 -0.200000
v -0.715856 -1.221194 -0.200000
v -0.715856 -1.121194 -0.200000
v -0.615856 -1.121194 -0.200000
v -0.665856 -1.121194 0.050670
v -0.715856 -1.121194 0.100670
v -0.715856 -1.221194 0.100670
v -0.615856 -1.221194 0.100670
v -0.615856 -1.171194 0.050670
v -0.665856 0.050000 -0.163357
v -0.665856 -0.050000 -0.163357
v -0.050000 -1.171194 -0.163357
v 0.050000 -1.171194 -0.163357
v -0.665856 -1.121194 -0.163356
v -0.615856 -1.171194 -0.163356
vn 0.0000 0.0000 -1.0000
vn -0.0000 0.0000 1.0000
vn 0.0000 1.0000 0.0000
vn 0.0000 -1.0000 0.0000
vn 1.0000 0.0000 0.0000
vn -1.0000 -0.0000 0.0000
vn 0.5774 0.5774 -0.5773
vn 0.5774 0.5774 0.5774
vn 0.7071 0.0000 -0.7071
vn 0.7071 0.0000 0.7071
vn 0.0000 0.7071 -0.7071
vn -0.0000 0.7071 0.7071
vn -0.3665 -0.3665 0.8552
vn -0.5774 0.5774 -0.5773
vn -0.5774 0.5774 0.5774
vn -0.7071 0.0000 -0.7071
vn -0.7071 0.0000 0.7071
vn 0.0000 -0.7071 0.7071
vn 0.3665 -0.3665 0.8552
vn 0.5774 -0.5774 -0.5773
vn 0.5774 -0.5774 0.5774
vn 0.0000 -0.7071 -0.7071
vn -0.3665 0.3665 0.8552
vn -0.5774 -0.5774 -0.5773
vn -0.5774 -0.5774 0.5774
vn 0.3665 0.3665 0.8552
vn -0.7071 -0.7071 0.0000
vn 0.7071 0.7071 0.0000
vn 0.7071 -0.7071 0.0000
vn -0.7071 0.7071 0.0000
s off
f 34//1 66//1 75//1 48//1
f 30//2 20//2 41//2 59//2
f 2//3 16//3 22//3 6//3
f 26//1 108//1 147//1 62//1
f 15//3 46//3 42//3 19//3
f 31//4 58//4 81//4 33//4
f 91//2 12//2 28//2 112//2
f 88//5 9//5 13//5 90//5
f 8//5 3//5 5//5 14//5
f 10//1 87//1 109//1 25//1
f 11//2 4//2 21//2 29//2
f 18//1 23//1 61//1 47//1
f 113//6 27//6 32//6 133//6
f 85//5 89//5 105//5 101//5
f 65//1 44//1 60//1 72//1
f 36//3 38//3 69//3 67//3
f 64//3 68//3 43//3 45//3
f 49//1 74//1 180//1 138//1
f 184//5 203//5 84//5 76//5
f 142//2 185//2 80//2 55//2
f 137//6 143//6 54//6 50//6
f 51//6 53//6 39//6 35//6
f 78//2 56//2 40//2 71//2
f 52//2 79//2 70//2 37//2
f 77//4 83//4 82//4 57//4
f 73//1 63//1 146//1 181//1
f 116//1 159//1 177//1 123//1
f 129//2 171//2 157//2 122//2
f 95//4 97//4 120//4 118//4
f 128//3 134//3 206//3 172//3
f 115//4 119//4 156//4 160//4
f 114//6 132//6 135//6 127//6
f 100//1 125//1 110//1 86//1
f 92//2 111//2 131//2 106//2
f 102//5 104//5 98//5 94//5
f 124//1 176//1 144//1 107//1
f 103//2 130//2 121//2 96//2
f 93//1 117//1 126//1 99//1
f 136//6 164//6 168//6 140//6
f 189//1 194//1 174//1 158//1
f 149//4 187//4 193//4 153//4
f 186//4 161//4 155//4 190//4
f 202//3 173//3 205//3 208//3
f 148//1 162//1 195//1 188//1
f 165//1 139//1 179//1 196//1
f 141//2 167//2 199//2 182//2
f 163//6 150//6 152//6 169//6
f 201//2 191//2 154//2 170//2
f 166//2 151//2 192//2 200//2
f 197//1 178//1 145//1 175//1
f 183//5 198//5 207//5 204//5
f 1//7 2//7 3//7
f 4//8 5//8 6//8
f 7//9 8//9 9//9 10//9
f 11//10 12//10 13//10 14//10
f 15//11 16//11 17//11 18//11
f 19//12 20//12 21//12 22//12
f 23//1 24//1 25//1 26//1
f 27//13 28//13 29//13 30//13 31//13
f 34//14 35//14 36//14
f 37//15 38//15 39//15
f 40//12 41//12 42//12 43//12
f 44//11 45//11 46//11 47//11
f 48//16 49//16 50//16 51//16
f 52//17 53//17 54//17 55//17
f 56//18 57//18 58//18 59//18
f 60//1 61//1 62//1 63//1
f 64//11 65//11 66//11 67//11
f 68//12 69//12 70//12 71//12
f 72//1 73//1 74//1 75//1
f 76//19 77//19 78//19 79//19 80//19
f 85//9 86//9 87//9 88//9
f 89//10 90//10 91//10 92//10
f 93//20 94//20 95//20
f 96//21 97//21 98//21
f 99//9 100//9 101//9 102//9
f 103//10 104//10 105//10 106//10
f 107//1 108//1 109//1 110//1
f 111//17 112//17 113//17 114//17
f 115//22 116//22 117//22 118//22
f 119//18 120//18 121//18 122//18
f 123//1 124//1 125//1 126//1
f 127//23 128//23 129//23 130//23 131//23
f 136//16 137//16 138//16 139//16
f 140//17 141//17 142//17 143//17
f 144//1 145//1 146//1 147//1
f 148//24 149//24 150//24
f 151//25 152//25 153//25
f 154//18 155//18 156//18 157//18
f 158//22 159//22 160//22 161//22
f 162//16 163//16 164//16 165//16
f 166//17 167//17 168//17 169//17
f 170//12 171//12 172//12 173//12
f 174//1 175//1 176//1 177//1
f 178//1 179//1 180//1 181//1
f 182//10 183//10 184//10 185//10
f 186//22 187//22 188//22 189//22
f 190//18 191//18 192//18 193//18
f 194//1 195//1 196//1 197//1
f 198//26 199//26 200//26 201//26 202//26
f 88//5 90//5 89//5 85//5
f 107//1 144//1 147//1 108//1
f 7//9 1//9 3//9 8//9
f 31//27 33//27 32//27 27//27
f 14//10 5//10 4//10 11//10
f 87//9 10//9 9//9 88//9
f 59//2 41//2 40//2 56//2
f 60//1 44//1 47//1 61//1
f 2//28 6//28 5//28 3//28
f 18//11 47//11 46//11 15//11
f 19//12 42//12 41//12 20//12
f 42//3 46//3 45//3 43//3
f 90//10 13//10 12//10 91//10
f 57//4 82//4 81//4 58//4
f 146//1 63//1 62//1 147//1
f 26//1 62//1 61//1 23//1
f 30//18 59//18 58//18 31//18
f 8//5 14//5 13//5 9//5
f 86//1 110//1 109//1 87//1
f 91//2 112//2 111//2 92//2
f 1//11 17//11 16//11 2//11
f 6//12 22//12 21//12 4//12
f 10//1 25//1 24//1 7//1
f 11//2 29//2 28//2 12//2
f 108//1 26//1 25//1 109//1
f 23//1 18//1 17//1 24//1
f 20//2 30//2 29//2 21//2
f 15//3 19//3 22//3 16//3
f 27//17 113//17 112//17 28//17
f 132//6 114//6 113//6 133//6
f 136//6 140//6 143//6 137//6
f 181//1 146//1 145//1 178//1
f 51//16 35//16 34//16 48//16
f 76//29 84//29 83//29 77//29
f 52//17 37//17 39//17 53//17
f 137//16 50//16 49//16 138//16
f 35//30 39//30 38//30 36//30
f 64//11 45//11 44//11 65//11
f 71//12 40//12 43//12 68//12
f 142//17 55//17 54//17 143//17
f 72//1 60//1 63//1 73//1
f 77//18 57//18 56//18 78//18
f 50//6 54//6 53//6 51//6
f 138//1 180//1 179//1 139//1
f 141//2 182//2 185//2 142//2
f 36//11 67//11 66//11 34//11
f 37//12 70//12 69//12 38//12
f 48//1 75//1 74//1 49//1
f 55//2 80//2 79//2 52//2
f 180//1 74//1 73//1 181//1
f 75//1 66//1 65//1 72//1
f 70//2 79//2 78//2 71//2
f 67//3 69//3 68//3 64//3
f 80//10 185//10 184//10 76//10
f 203//5 184//5 183//5 204//5
f 102//9 94//9 93//9 99//9
f 127//30 135//30 134//30 128//30
f 103//10 96//10 98//10 104//10
f 85//9 101//9 100//9 86//9
f 170//2 154//2 157//2 171//2
f 177//1 159//1 158//1 174//1
f 94//29 98//29 97//29 95//29
f 115//22 160//22 159//22 116//22
f 122//18 157//18 156//18 119//18
f 155//4 161//4 160//4 156//4
f 92//10 106//10 105//10 89//10
f 172//3 206//3 205//3 173//3
f 144//1 176//1 175//1 145//1
f 123//1 177//1 176//1 124//1
f 128//12 172//12 171//12 129//12
f 101//5 105//5 104//5 102//5
f 95//22 118//22 117//22 93//22
f 96//18 121//18 120//18 97//18
f 99//1 126//1 125//1 100//1
f 106//2 131//2 130//2 103//2
f 110//1 125//1 124//1 107//1
f 126//1 117//1 116//1 123//1
f 121//2 130//2 129//2 122//2
f 118//4 120//4 119//4 115//4
f 131//17 111//17 114//17 127//17
f 162//16 148//16 150//16 163//16
f 202//28 208//28 207//28 198//28
f 169//17 152//17 151//17 166//17
f 139//16 165//16 164//16 136//16
f 149//27 153//27 152//27 150//27
f 189//22 158//22 161//22 186//22
f 190//18 155//18 154//18 191//18
f 140//17 168//17 167//17 141//17
f 197//1 175//1 174//1 194//1
f 201//12 170//12 173//12 202//12
f 163//6 169//6 168//6 164//6
f 148//22 188//22 187//22 149//22
f 153//18 193//18 192//18 151//18
f 165//1 196//1 195//1 162//1
f 166//2 200//2 199//2 167//2
f 178//1 197//1 196//1 179//1
f 194//1 189//1 188//1 195//1
f 191//2 201//2 200//2 192//2
f 186//4 190//4 193//4 187//4
f 198//10 183//10 182//10 199//10
f 1//1 7//1 24//1 17//1
